<?xml version="1.0" encoding="UTF-8"?>
<svg width="16px" height="16px" viewBox="0 0 16 16" version="1.1" xmlns="http://www.w3.org/2000/svg" xmlns:xlink="http://www.w3.org/1999/xlink">
    <title>icons_Q2@3x</title>
    <g id="Challenge" stroke="none" stroke-width="1" fill="none" fill-rule="evenodd">
        <g id="Artboard" transform="translate(-337.000000, -2151.000000)" fill="#6F536F" fill-rule="nonzero">
            <g id="Social" transform="translate(300.000000, 2158.000000) rotate(-360.000000) translate(-300.000000, -2158.000000) translate(244.000000, 2148.000000)">
                <g id="Twitter" transform="translate(92.000000, 0.000000)">
                    <g id="icons_Q2" transform="translate(1.000000, 3.000000)">
                        <path d="M14.8370924,0.000692379562 L1.20300787,0.000692379562 C0.887698064,-0.0101859571 0.581500196,0.107504298 0.354661208,0.32676302 C0.127822219,0.546021742 -0.00018721901,0.848028911 2.05523293e-07,1.163499 L2.05523293e-07,14.836501 C-0.00018721901,15.1519711 0.127822219,15.4539783 0.354661208,15.673237 C0.581500196,15.8924957 0.887698064,16.010186 1.20300787,15.9993076 L14.8370924,15.9993076 C15.4793483,15.9993076 16.0000002,15.4787014 16.0000002,14.836501 L16.0000002,1.163499 C16.0000002,0.521298637 15.4793483,0.000692379562 14.8370924,0.000692379562 Z M4.77192999,13.6335976 L2.36591508,13.6335976 L2.36591508,6.01520939 L4.77192999,6.01520939 L4.77192999,13.6335976 Z M3.56892253,4.97269311 C2.80949004,4.95098811 2.20520392,4.32898268 2.20551396,3.5693058 C2.20551396,3.082249 2.46537825,2.63218996 2.8872183,2.38866156 C3.30905835,2.14513315 3.82878672,2.14513315 4.25062677,2.38866156 C4.67246681,2.63218996 4.9323311,3.082249 4.9323311,3.5693058 C4.93264115,4.32898268 4.32835502,4.95098811 3.56892253,4.97269311 L3.56892253,4.97269311 Z M13.6340849,13.6335976 L11.2681703,13.6335976 L11.2681703,9.90459705 C11.2681703,9.02246789 11.2681703,7.89975805 10.0250626,7.89975805 C8.78195485,7.89975805 8.62155385,8.86208077 8.62155385,9.86450027 L8.62155385,13.6335976 L6.25563919,13.6335976 L6.25563919,6.01520939 L8.50125311,6.01520939 L8.50125311,7.05772567 L8.54135336,7.05772567 C9.00158995,6.25919935 9.86586945,5.78080029 10.7869673,5.81472549 C13.1929822,5.81472549 13.6340849,7.37849991 13.6340849,9.46353247 L13.6340849,13.6335976 Z" id="Path_95"></path>
                    </g>
                </g>
            </g>
        </g>
    </g>
</svg>